<svg version="1.0" xmlns="http://www.w3.org/2000/svg"
 width="330px" height="316.000000pt" viewBox="0 0 339.000000 316.000000"
 preserveAspectRatio="xMidYMid meet">

<g transform="translate(0.000000,316.000000) scale(0.1,-0.1)"
fill="#333333" stroke="none">
<path d="M1731 3072 c-4 -10 -11 -48 -15 -87 -8 -95 -42 -357 -77 -607 -16
-114 -29 -224 -30 -245 0 -21 -4 -47 -8 -58 -9 -23 -32 -23 -201 0 -216 29
-360 46 -515 61 -88 8 -194 19 -234 25 -43 5 -79 5 -84 0 -5 -5 -17 -80 -28
-166 -15 -119 -17 -160 -8 -166 7 -4 46 -10 88 -14 113 -9 488 -53 599 -69 53
-8 145 -20 204 -27 58 -6 112 -15 119 -20 11 -6 10 -33 -4 -146 -10 -76 -26
-219 -37 -318 -11 -99 -27 -247 -36 -330 -9 -82 -19 -173 -21 -201 l-5 -51 98
-7 c55 -4 130 -11 167 -17 38 -6 71 -9 74 -6 3 3 11 57 18 119 8 62 21 165 29
228 14 110 40 335 51 450 12 121 28 231 35 235 5 3 97 -6 206 -20 110 -13 262
-31 339 -40 77 -9 218 -26 313 -38 118 -16 176 -20 181 -12 12 14 34 316 24
325 -4 5 -91 18 -193 29 -102 12 -259 32 -350 46 -91 13 -234 32 -317 42 -103
12 -154 22 -158 31 -2 7 2 63 10 125 8 62 35 276 60 477 25 201 48 377 51 391
6 33 3 35 -138 53 -200 26 -197 26 -207 8z"/>
</g>

<g transform="translate(150,500.000000) scale(0.1,-0.1)"
fill="#232323" stroke="none">
<path d="M1731 3072 c-4 -10 -11 -48 -15 -87 -8 -95 -42 -357 -77 -607 -16
-114 -29 -224 -30 -245 0 -21 -4 -47 -8 -58 -9 -23 -32 -23 -201 0 -216 29
-360 46 -515 61 -88 8 -194 19 -234 25 -43 5 -79 5 -84 0 -5 -5 -17 -80 -28
-166 -15 -119 -17 -160 -8 -166 7 -4 46 -10 88 -14 113 -9 488 -53 599 -69 53
-8 145 -20 204 -27 58 -6 112 -15 119 -20 11 -6 10 -33 -4 -146 -10 -76 -26
-219 -37 -318 -11 -99 -27 -247 -36 -330 -9 -82 -19 -173 -21 -201 l-5 -51 98
-7 c55 -4 130 -11 167 -17 38 -6 71 -9 74 -6 3 3 11 57 18 119 8 62 21 165 29
228 14 110 40 335 51 450 12 121 28 231 35 235 5 3 97 -6 206 -20 110 -13 262
-31 339 -40 77 -9 218 -26 313 -38 118 -16 176 -20 181 -12 12 14 34 316 24
325 -4 5 -91 18 -193 29 -102 12 -259 32 -350 46 -91 13 -234 32 -317 42 -103
12 -154 22 -158 31 -2 7 2 63 10 125 8 62 35 276 60 477 25 201 48 377 51 391
6 33 3 35 -138 53 -200 26 -197 26 -207 8z"/>
</g>
</svg>
