<svg viewBox="0 0 18 18" fill="rgb(61, 113, 213)" xmlns="http://www.w3.org/2000/svg" width="68" height="68"><path d="M18 6.2812H17.0624V5.1562H17.0656L17.4374 4.7812V4.4062H11.8126V3.9374H10.8782C10.878 3.6788 10.668 3.4688 10.4094 3.4688C10.1504 3.4688 9.9406 3.6788 9.9406 3.9374C9.9404 3.4198 9.5206 3 9.003 3C8.4852 3 8.0656 3.4198 8.0654 3.9374C8.0654 3.6788 7.8554 3.4688 7.5966 3.4688C7.3378 3.4688 7.128 3.6788 7.1278 3.9374H6.1872V4.4062H0.5624V4.7812L0.9374 5.156V6.2812H0V6.75L0.375 7.1252V8.5314H0.5626V15.2814H0.375V15.6564H1.6876V15.2814H1.5V8.5314H1.6876V8.1564H3.1876V8.5314H3.3752V15.2814H3.1876V15.6564H4.5V15.2814H4.3124V8.5314H4.5V8.1564H6V8.5314H6.1876V15.2814H6V15.6564H7.3126V15.2814H7.125V8.5314H7.3126V8.1564H10.6876V8.5314H10.8752V15.2814H10.6876V15.6564H12V15.2814H11.8124V8.5314H12V8.1564H13.5V8.5314H13.6876V15.2814H13.5V15.6564H14.8126V15.2814H14.625V8.5314H14.8126V8.1564H16.3126V8.5314H16.5V15.2814H16.3124V15.6564H17.625V15.2814H17.4374V8.5314H17.625V7.125L18 6.7498V6.2812Z" fill="rgb(61, 113, 213)"></path></svg>