<svg viewBox="0 0 18 18" fill="rgb(69, 205, 91)" xmlns="http://www.w3.org/2000/svg" width="68" height="68"><path d="M15.2222 10.6018C15.7975 10.9575 16.3909 11.2823 17 11.5751V10.6472C15.4289 9.82681 12.1169 7.74904 9.88889 3.89655C9.88889 3.89655 9.88889 3 9 3C8.11111 3 8.11111 3.89655 8.11111 3.89655C5.88311 7.74904 2.57111 9.82681 1 10.6472V11.5751C1.6091 11.2823 2.20252 10.9575 2.77778 10.6018V11.9655H1V13.7586H8.11111V16H9.88889V13.7586H17V11.9655H15.2222V10.6018ZM14.3333 11.9655H12.5556V8.63257C13.1213 9.12904 13.7149 9.59225 14.3333 10.02V11.9655ZM3.66667 10.0195C4.28514 9.59202 4.87872 9.1289 5.44444 8.63257V11.9655H3.66667V10.0195ZM6.33333 11.9655V7.80016C6.98009 7.15343 7.57458 6.45563 8.11111 5.71342V11.9655H6.33333ZM9.88889 5.71386C10.4256 6.45598 11.02 7.15377 11.6667 7.80057V11.9655H9.88889V5.71386Z" fill="rgb(69, 205, 91)"></path></svg>