<svg viewBox="0 0 18 18" fill="rgb(119, 189, 233)" xmlns="http://www.w3.org/2000/svg" width="84" height="84"><path fill-rule="evenodd" clip-rule="evenodd" d="M5.04902 0.931138L5.55882 0.5L6.06863 0.931138V2.65569L6.32353 2.44012L6.70588 2.65569V0.931138L7.21569 0.5L7.72549 0.931138V3.19461L8.61765 3.51796V5.78144L9.38235 5.88922V8.26048H12.0588V9.55389H14.098V15.9132H15.5V18.5H2.5V9.44611L3.26471 9.23054V5.99701L4.02941 5.78144V3.51796L5.04902 3.19461V0.931138ZM4.99994 7.00001H5.99994V16H4.99994V7.00001ZM11 11H10V12H11V11ZM10 13H11V14H10V13ZM11 15H10V16H11V15ZM12 11H13V12H12V11ZM13 13H12V14H13V13ZM12 15H13V16H12V15ZM7.99997 7.00001H6.99997V16H7.99997V7.00001Z" fill="rgb(119, 189, 233)"></path></svg>