<svg viewBox="0 0 18 18" fill="rgb(239, 60, 60)" xmlns="http://www.w3.org/2000/svg" width="68" height="68"><path d="M11.7042 11.2595C11.5933 14.2923 8.81922 16.6533 8.81922 16.6533L6.6355 15.7877C5.61694 15.3813 5.23679 14.7326 4.77683 13.7377L4.77462 13.7333L8.26547 14.7381L6.13268 13.717C4.5984 12.9826 3.95779 11.9762 3.29686 10.4087L8.26469 12.3298L3.60239 9.51351C2.5432 8.87368 2.22992 8.15843 1.70901 7.03608L7.66292 9.57561L4.74433 7.67262C1.59633 5.69353 1.31371 4.5394 0.239746 2.22338L6.92659 6.42982C8.82919 7.62607 11.7866 9.01331 11.7042 11.2595ZM17.7601 7.54073C17.7601 7.79451 17.1132 8.31098 17.0083 8.3025C16.8715 8.29106 15.2988 7.27363 14.7203 6.98435C14.1661 6.70764 12.5262 7.03127 12.3489 5.40278C11.9425 6.43721 12.7468 8.73553 13.3774 9.84272C14.6859 12.1395 12.4276 15.2583 9.61649 16.7143C10.0084 16.318 10.3704 15.893 10.6993 15.443C11.1185 14.8751 11.4718 14.2613 11.7522 13.6136C12.0847 12.8303 12.2694 12.0457 12.2964 11.2813C12.3146 10.7092 12.1769 10.1428 11.8981 9.64286C11.6584 9.19954 11.3167 8.77834 10.8534 8.35238C10.0465 7.61019 9.00617 6.98879 8.08553 6.44091L8.04265 6.41542C7.82729 6.00903 7.72386 5.62999 7.86497 5.31596C8.85175 3.12112 11.5937 1.86096 14.0043 2.10701C14.7875 1.16568 15.5519 1.29129 15.5519 1.29129L15.1123 2.22708C15.1123 2.22708 15.8512 1.81368 15.9661 1.95776L15.3572 3.09194L15.8715 3.77651C15.8715 3.77651 17.7601 7.30724 17.7601 7.54073ZM15.0336 3.84929C15.0336 3.7801 15.0131 3.71245 14.9746 3.65492C14.9362 3.59738 14.8816 3.55254 14.8176 3.52606C14.7537 3.49958 14.6834 3.49265 14.6155 3.50615C14.5476 3.51965 14.4853 3.55297 14.4363 3.6019C14.3874 3.65083 14.3541 3.71317 14.3406 3.78103C14.3271 3.8489 14.334 3.91924 14.3605 3.98317C14.387 4.0471 14.4318 4.10174 14.4894 4.14019C14.5469 4.17863 14.6145 4.19915 14.6838 4.19915C14.7297 4.19919 14.7753 4.19017 14.8178 4.17259C14.8603 4.155 14.899 4.12921 14.9315 4.09668C14.964 4.06414 14.9898 4.02552 15.0074 3.983C15.025 3.94049 15.0337 3.8953 15.0336 3.84929Z" fill="rgb(239, 60, 60)"></path></svg>