<svg viewBox="0 0 18 18" fill="rgb(241, 177, 41)" xmlns="http://www.w3.org/2000/svg" width="84" height="84"><path d="M13.5844 4.00312C12.8156 2.23438 11.0531 1 9 1C6.94688 1 5.18438 2.23438 4.41563 4.00312C3.90313 4.04688 3.5 4.475 3.5 5V7C3.5 7.525 3.90313 7.95312 4.41563 7.99687C5.18438 9.7656 6.94688 11 9 11C11.0531 11 12.8156 9.7656 13.5844 7.99687C14.0969 7.95312 14.5 7.525 14.5 7V5C14.5 4.475 14.0969 4.04688 13.5844 4.00312ZM12.5 5.5V6C12.5 7.65625 11.1562 9 9.5 9H8.5C6.84375 9 5.5 7.65625 5.5 6V5.5C5.5 4.67188 6.17188 4 7 4H11C11.8281 4 12.5 4.67188 12.5 5.5ZM7.91563 6.08437L7.72813 5.42188C7.7 5.31875 7.60625 5.25 7.5 5.25C7.39375 5.25 7.3 5.31875 7.27187 5.42188L7.08437 6.08437L6.42188 6.27187C6.31875 6.3 6.25 6.39375 6.25 6.5C6.25 6.60625 6.31875 6.7 6.42188 6.72813L7.08437 6.91563L7.27187 7.57812C7.3 7.68125 7.39375 7.75 7.5 7.75C7.60625 7.75 7.7 7.68125 7.72813 7.57812L7.91563 6.91563L8.57812 6.72813C8.68125 6.7 8.75 6.60625 8.75 6.5C8.75 6.39375 8.68125 6.3 8.57812 6.27187L7.91563 6.08437ZM5.52187 10.8906C3.45937 11.7063 2 13.7188 2 16.0719C2 16.5844 2.41563 17 2.92813 17H6V15C6 14.4469 6.44688 14 7 14H11C11.5531 14 12 14.4469 12 15V17H15.0719C15.5844 17 16 16.5844 16 16.0719C16 13.7188 14.5406 11.7063 12.4781 10.8906C11.4969 11.5875 10.2969 12 9 12C7.70312 12 6.50312 11.5875 5.52187 10.8906ZM7.5 15C7.225 15 7 15.225 7 15.5V17H8V15.5C8 15.225 7.775 15 7.5 15ZM10.5 16C10.6326 16 10.7598 15.9473 10.8536 15.8536C10.9473 15.7598 11 15.6326 11 15.5C11 15.3674 10.9473 15.2402 10.8536 15.1464C10.7598 15.0527 10.6326 15 10.5 15C10.3674 15 10.2402 15.0527 10.1464 15.1464C10.0527 15.2402 10 15.3674 10 15.5C10 15.6326 10.0527 15.7598 10.1464 15.8536C10.2402 15.9473 10.3674 16 10.5 16Z" fill="rgb(241, 177, 41)"></path></svg>