<svg viewBox="0 0 18 18" fill="rgb(243, 194, 19)" xmlns="http://www.w3.org/2000/svg" width="68" height="68"><path d="M8.58381 17.3741C8.70705 17.4563 8.85189 17.5002 9.00006 17.5002C9.14822 17.5002 9.29306 17.4563 9.41631 17.3741L16.1663 12.8741C16.2513 12.8177 16.3239 12.7444 16.3796 12.6589C16.4352 12.5734 16.4728 12.4774 16.49 12.3768C16.5073 12.2762 16.5037 12.1731 16.4796 12.074C16.4556 11.9748 16.4115 11.8816 16.3501 11.8001L9.60006 2.8001C9.31731 2.4221 8.68281 2.4221 8.40006 2.8001L1.65006 11.8001C1.58885 11.8817 1.54493 11.9749 1.52098 12.074C1.49703 12.1732 1.49354 12.2761 1.51074 12.3767C1.52794 12.4772 1.56546 12.5731 1.62101 12.6587C1.67656 12.7442 1.74896 12.8175 1.83381 12.8741L8.58381 17.3741ZM14.6738 12.0656L9.00006 15.8486V4.50035L14.6738 12.0656Z" fill="rgb(243, 194, 19)"></path></svg>