<svg viewBox="0 0 18 18" fill="rgb(98, 183, 84)" xmlns="http://www.w3.org/2000/svg" width="148" height="148"><path fill-rule="evenodd" clip-rule="evenodd" d="M9.00088 0.5C8.60486 0.499933 8.21385 0.59038 7.85665 0.764684C7.49944 0.938989 7.18513 1.19271 6.93684 1.50719C6.68854 1.82167 6.51259 2.18889 6.42192 2.58184C6.33125 2.97478 6.32818 3.38345 6.41293 3.77776C6.06858 3.93976 5.74012 4.13326 5.43285 4.35466C5.14011 4.08318 4.79142 3.88202 4.41239 3.76595C4.03337 3.64988 3.63364 3.62186 3.24259 3.68394C2.85155 3.74602 2.47911 3.89663 2.15267 4.12469C1.82623 4.35275 1.55407 4.65248 1.3562 5.00183C1.15833 5.35119 1.03978 5.7413 1.00925 6.1435C0.978725 6.54569 1.037 6.94974 1.17981 7.32596C1.32261 7.70219 1.5463 8.04101 1.83445 8.31753C2.12259 8.59406 2.46787 8.80126 2.84489 8.9239C2.81082 9.30711 2.81082 9.69268 2.84489 10.0759C2.46772 10.1984 2.12227 10.4054 1.83394 10.6819C1.54561 10.9583 1.32173 11.2972 1.17877 11.6734C1.03582 12.0497 0.977406 12.4538 1.00784 12.8561C1.03828 13.2584 1.15678 13.6486 1.35465 13.9981C1.55251 14.3475 1.8247 14.6473 2.1512 14.8755C2.47771 15.1036 2.85022 15.2542 3.24136 15.3163C3.6325 15.3784 4.03231 15.3503 4.4114 15.2342C4.7905 15.118 5.13923 14.9167 5.43196 14.6451C5.68537 14.8269 5.95114 14.9898 6.22839 15.132L5.51408 17.3154C5.47744 17.4276 5.46283 17.546 5.47109 17.6639C5.47935 17.7818 5.51031 17.8969 5.56221 18.0026C5.66702 18.2161 5.85076 18.3785 6.07299 18.4539C6.29522 18.5293 6.53775 18.5117 6.74722 18.4048C6.95669 18.298 7.11594 18.1107 7.18993 17.8842L7.90337 15.7008C8.62926 15.8334 9.3725 15.8334 10.0984 15.7008L10.8118 17.8842C10.8858 18.1107 11.0451 18.298 11.2545 18.4048C11.3583 18.4577 11.4712 18.4893 11.5869 18.4977C11.7026 18.5061 11.8187 18.4912 11.9288 18.4539C12.0388 18.4165 12.1406 18.3575 12.2282 18.28C12.3158 18.2026 12.3877 18.1084 12.4396 18.0026C12.4915 17.8969 12.5224 17.7818 12.5307 17.6639C12.5389 17.546 12.5243 17.4276 12.4877 17.3154L11.7734 15.132C12.0497 14.9902 12.3153 14.8278 12.568 14.646C12.8608 14.9176 13.2095 15.1189 13.5886 15.2351C13.9677 15.3512 14.3675 15.3793 14.7586 15.3172C15.1498 15.2551 15.5223 15.1045 15.8488 14.8764C16.1753 14.6482 16.4475 14.3484 16.6454 13.999C16.8432 13.6495 16.9617 13.2593 16.9922 12.857C17.0226 12.4547 16.9642 12.0506 16.8212 11.6743C16.6783 11.2981 16.4544 10.9592 16.1661 10.6828C15.8777 10.4063 15.5323 10.1993 15.1551 10.0768C15.1895 9.69331 15.1898 9.30744 15.156 8.9239C15.533 8.80126 15.8783 8.59406 16.1664 8.31753C16.4546 8.04101 16.6783 7.70219 16.8211 7.32596C16.9639 6.94974 17.0222 6.54569 16.9916 6.1435C16.9611 5.7413 16.8426 5.35119 16.6447 5.00183C16.4468 4.65248 16.1747 4.35275 15.8482 4.12469C15.5218 3.89663 15.1493 3.74602 14.7583 3.68394C14.3672 3.62186 13.9675 3.64988 13.5885 3.76595C13.2095 3.88202 12.8608 4.08318 12.568 4.35466C12.2596 4.13222 11.9319 3.93911 11.5888 3.77776C11.6736 3.38345 11.6705 2.97478 11.5798 2.58184C11.4892 2.18889 11.3132 1.82167 11.0649 1.50719C10.8166 1.19271 10.5023 0.938989 10.1451 0.764684C9.78791 0.59038 9.39691 0.499933 9.00088 0.5ZM11.2065 13.3987C11.3899 13.2907 11.5655 13.1695 11.7319 13.036C11.6457 12.4363 11.7608 11.8245 12.0586 11.2999C12.3556 10.7741 12.8183 10.3662 13.3715 10.1425C13.4313 9.71626 13.4313 9.28353 13.3715 8.8573C12.8183 8.63357 12.3556 8.22567 12.0586 7.69992C11.7605 7.17542 11.645 6.56362 11.731 5.96384C11.3993 5.69715 11.0318 5.48044 10.6397 5.32034C10.1731 5.69636 9.59563 5.90061 9.00088 5.89994C8.38193 5.89994 7.81242 5.68394 7.36123 5.32034C6.96655 5.48234 6.59923 5.69924 6.26989 5.96384C6.35584 6.56362 6.24041 7.17542 5.94231 7.69992C5.64577 8.22536 5.1837 8.63323 4.63112 8.8573C4.57131 9.28353 4.57131 9.71626 4.63112 10.1425C5.18387 10.3667 5.64629 10.7744 5.94365 11.2996C6.24102 11.8248 6.35596 12.4368 6.26989 13.0369C6.43589 13.1692 6.6116 13.2907 6.79525 13.3987L8.16384 9.2155C8.22252 9.03642 8.33496 8.88068 8.48526 8.77033C8.63555 8.65998 8.81609 8.60061 9.00132 8.60061C9.18655 8.60061 9.36709 8.65998 9.51739 8.77033C9.66769 8.88068 9.78014 9.03642 9.83881 9.2155L11.2065 13.3987Z" fill="rgb(98, 183, 84)"></path></svg>