<svg viewBox="0 0 18 18" fill="rgb(255, 7, 126)" xmlns="http://www.w3.org/2000/svg" width="68" height="68"><path d="M17.988 3.76649C17.9675 3.86743 17.9228 3.96196 17.8578 4.04205C17.7927 4.12213 17.7092 4.1854 17.6143 4.22648L13.0987 6.18407C14.568 6.57512 15.8212 7.53066 16.5833 8.84085C16.9656 9.49032 17.2137 10.2093 17.3131 10.9555C17.4124 11.7018 17.361 12.4602 17.1619 13.1864C17.1343 13.2876 17.0823 13.3805 17.0102 13.457C16.9382 13.5334 16.8484 13.5911 16.7487 13.6249C16.649 13.6587 16.5425 13.6677 16.4386 13.6509C16.3346 13.6341 16.2364 13.5922 16.1525 13.5288L9.64314 8.59446V16.86C9.64314 17.0297 9.57541 17.1925 9.45484 17.3125C9.33427 17.4326 9.17075 17.5 9.00024 17.5C8.82973 17.5 8.66621 17.4326 8.54564 17.3125C8.42507 17.1925 8.35734 17.0297 8.35734 16.86V8.59446L1.84796 13.5288C1.76409 13.5924 1.66579 13.6345 1.56174 13.6513C1.45769 13.6682 1.35107 13.6593 1.25127 13.6255C1.15147 13.5916 1.06156 13.5339 0.989463 13.4573C0.917361 13.3808 0.865279 13.2877 0.837805 13.1864C0.638648 12.4602 0.587241 11.7018 0.686602 10.9555C0.785964 10.2093 1.03409 9.49032 1.41642 8.84085C2.17865 7.5305 3.43222 6.57493 4.90174 6.18407L0.386167 4.22648C0.291369 4.18538 0.207929 4.12212 0.142926 4.04207C0.0779234 3.96202 0.0332752 3.86754 0.0127693 3.76665C-0.00773665 3.66576 -0.00349525 3.56144 0.0251339 3.46253C0.053763 3.36362 0.105935 3.27305 0.177224 3.19849C0.679927 2.66251 1.28797 2.23515 1.96358 1.94296C2.63919 1.65078 3.36793 1.5 4.10455 1.5C4.84116 1.5 5.56991 1.65078 6.24552 1.94296C6.92112 2.23515 7.52917 2.66251 8.03187 3.19849C8.41759 3.60309 8.74242 4.06118 8.99622 4.55848C9.25126 4.06093 9.57745 3.60283 9.96459 3.19849C10.4673 2.66251 11.0753 2.23515 11.7509 1.94296C12.4266 1.65078 13.1553 1.5 13.8919 1.5C14.6285 1.5 15.3573 1.65078 16.0329 1.94296C16.7085 2.23515 17.3165 2.66251 17.8192 3.19849C17.8913 3.27262 17.9442 3.36299 17.9736 3.46188C18.003 3.56078 18.0079 3.66528 17.988 3.76649Z" fill="rgb(255, 7, 126)"></path></svg>