<svg viewBox="0 0 18 18" fill="rgb(98, 159, 142)" xmlns="http://www.w3.org/2000/svg" width="68" height="68"><path fill-rule="evenodd" clip-rule="evenodd" d="M2.88888 0.583889C2.84622 0.633835 2.78074 0.80689 2.74337 0.968548C2.70201 1.14737 2.55903 1.39084 2.37824 1.59028C1.8781 2.14215 1.85209 2.63374 2.29856 3.09796C2.61625 3.42831 2.58387 3.51815 2.14711 3.51815C1.54339 3.51815 1.5 3.56767 1.5 4.25679C1.5 4.90511 1.55795 4.99544 1.97378 4.99544C2.13038 4.99544 2.1571 5.01901 2.11364 5.11855C1.94155 5.5127 1.86832 5.758 1.86694 5.94513C1.86462 6.25423 2.0972 6.69932 2.38411 6.93498C2.63023 7.13702 2.63682 7.15672 2.72562 7.95003C2.84296 8.99855 3.12378 10.4837 3.29747 10.975C3.4293 11.3477 3.42966 11.3752 3.30682 11.7248C3.1324 12.221 2.94835 13.3008 2.94987 13.8188C2.95371 15.1172 3.54896 16.225 4.53237 16.7641L4.92118 16.9771L4.87251 17.6165C4.84578 17.9682 4.80717 18.3113 4.78675 18.379C4.75169 18.4954 5.02396 18.502 9.80672 18.4997L14.8637 18.4973L15.7228 17.2983C16.5259 16.1773 16.573 16.0932 16.4471 16.0056C16.373 15.9541 15.76 15.5142 15.0849 15.0279C13.682 14.0173 13.864 14.0325 13.2336 14.8726C13.0147 15.1643 12.8182 15.4038 12.7969 15.4049C12.7755 15.4059 12.6545 15.203 12.5281 14.9538C12.2039 14.3155 11.4588 13.568 10.8624 13.2828C10.4404 13.081 10.2984 13.0521 9.51062 13.0074C8.42602 12.946 7.87373 12.8503 7.44414 12.6492C7.02895 12.4548 6.41937 11.8703 6.20627 11.4621C5.94588 10.9632 5.63717 10.5827 5.30507 10.3511C5.08995 10.201 4.98174 10.067 4.94958 9.91082C4.92408 9.78729 4.91568 9.67424 4.93082 9.65954C4.94595 9.64483 5.25633 9.66988 5.62044 9.71525C6.3507 9.80621 6.2963 9.75697 6.38786 10.4092C6.53258 11.4399 7.47861 12.3092 8.45739 12.3109C9.4781 12.3126 10.4274 11.3506 10.5342 10.2061L10.5724 9.79735L11.5229 9.67586C12.0457 9.60903 12.5142 9.52187 12.564 9.48226C12.716 9.36112 12.6727 9.07952 12.4916 9.01051C12.4019 8.97646 11.8723 8.89289 11.3145 8.82494C10.5926 8.73693 10.2766 8.66975 10.2175 8.59173C10.1495 8.5019 10.236 8.35424 10.6955 7.77641C11.4435 6.83544 11.4643 6.79401 11.2783 6.61343C11.0925 6.43299 11.0502 6.45297 10.0832 7.17698C9.45297 7.64887 9.33787 7.71014 9.19721 7.64859C9.0204 7.57128 9.01939 7.56755 8.85098 6.33204C8.77153 5.74921 8.70677 5.49849 8.61942 5.43511C8.46861 5.32572 8.43761 5.32572 8.29036 5.43511C8.20518 5.49835 8.13948 5.76989 8.05626 6.40239C7.90364 7.56206 7.90314 7.5641 7.71264 7.64732C7.56792 7.71049 7.45297 7.64831 6.75857 7.13111C5.96891 6.54294 5.80594 6.46936 5.64311 6.6275C5.48507 6.78099 5.55243 6.92303 6.13652 7.66709C6.72691 8.41917 6.75828 8.47848 6.65209 8.64112C6.58611 8.74214 4.98586 8.98033 4.81101 8.91519C4.65174 8.85582 4.32738 6.49257 4.3255 5.37714C4.32485 5.02309 4.32695 5.01971 4.59647 4.95506L4.86809 4.88992L4.88939 4.2933C4.91474 3.58469 4.86193 3.51815 4.2748 3.51815C3.94929 3.51815 3.89026 3.49824 3.89026 3.38835C3.89026 3.31695 3.96015 3.19828 4.04562 3.12455C4.13109 3.05083 4.26466 2.85245 4.34238 2.68361C4.60799 2.10691 4.34419 1.46133 3.57626 0.80893C3.19266 0.48301 3.02267 0.427366 2.88888 0.583889Z" fill="rgb(98, 159, 142)"></path></svg>