<svg viewBox="0 0 18 18" fill="rgb(229, 129, 57)" xmlns="http://www.w3.org/2000/svg" width="68" height="68"><path fill-rule="evenodd" clip-rule="evenodd" d="M1.6482 11.022H0L0.0206791 13.011L1.6482 13.0362V15H3.29487V13.0344H14.7067V15H16.3533V13.0344H18V11.022H16.3533V4L14.7258 4.02527L14.7018 5.47609L14.4266 5.73901C11.7986 8.24963 8.14017 8.71824 5.15216 6.927C4.56487 6.57492 3.97716 6.12802 3.58032 5.73171L3.29487 5.4467V4.00187H1.6482V11.022ZM3.29487 11.022H4.90324V7.9414L4.49353 7.67398C4.14558 7.44695 3.74632 7.1427 3.38103 6.82633L3.29487 6.75168V11.022ZM14.3172 7.08327C14.1136 7.25465 13.756 7.51758 13.5226 7.66748L13.0983 7.94V11.022H14.7067V8.89253C14.7067 7.72135 14.7023 6.76502 14.6971 6.76736C14.6918 6.7697 14.5209 6.91184 14.3172 7.08327ZM5.74572 9.68313V11.022H7.3541V8.87091L7.26793 8.84783C6.65132 8.68263 6.04974 8.48686 5.80278 8.37108C5.75304 8.34772 5.74572 8.51616 5.74572 9.68313ZM11.9877 8.45382C11.8163 8.52922 11.1394 8.74216 10.7336 8.84835L10.6474 8.87091V11.022H12.2558V9.68814C12.2558 8.95454 12.2429 8.35587 12.2271 8.35774C12.2113 8.35961 12.1036 8.40285 11.9877 8.45382ZM8.19658 11.022H9.80495V8.98613H8.19658V11.022Z" fill="rgb(229, 129, 57)"></path></svg>