<svg viewBox="0 0 18 18" fill="rgb(64, 152, 255)" xmlns="http://www.w3.org/2000/svg" width="68" height="68"><path d="M16.65 19C15.7745 19 14.899 18.7907 14.1 18.3721C12.4935 19.2093 10.6065 19.2093 9 18.3721C7.3935 19.2093 5.5065 19.2093 3.9 18.3721C3.0925 18.7907 2.2255 19 1.35 19H0.5V17.3256H1.35C2.234 17.3256 3.118 17.0326 3.9 16.4884C5.4555 17.5767 7.4445 17.5767 9 16.4884C10.5555 17.5767 12.5445 17.5767 14.1 16.4884C14.8735 17.0326 15.766 17.3256 16.65 17.3256H17.5V19H16.65ZM13.25 1C12.315 1 11.55 1.75349 11.55 2.67442C11.55 3.59535 12.315 4.34884 13.25 4.34884C14.185 4.34884 14.95 3.59535 14.95 2.67442C14.95 1.75349 14.185 1 13.25 1ZM11.0655 6.84372L9.153 8.11628L12.4 10.6279V13.8428C12.8505 14.1609 13.2755 14.4958 13.6665 14.8223C13.0885 15.3079 12.349 15.6512 11.55 15.6512C10.53 15.6512 9.6205 15.0986 9 14.3953C8.3795 15.0986 7.47 15.6512 6.45 15.6512C6.1695 15.6512 5.8975 15.6093 5.634 15.534C3.2115 13.893 1.35 12.0679 1.35 10.8623C1.35 10 2.2085 9.7907 2.9225 9.7907C3.7555 9.7907 4.8605 10.0502 6.0675 10.4856L5.617 7.89023C5.5235 7.3293 5.77 6.73488 6.28 6.39163L8.1075 5.17767L6.4075 4.86791L4.0105 6.48372L3.05 5.10233L6.025 3.09302L10.7425 3.95535C11.125 4.0307 11.533 4.26512 11.7795 4.70047L12.5275 5.99814C12.8992 6.64122 13.437 7.17594 14.0865 7.54797C14.7359 7.92 15.4737 8.11607 16.225 8.11628V9.7907C15.1779 9.7893 14.1497 9.51617 13.2439 8.99881C12.3382 8.48145 11.5868 7.73813 11.0655 6.84372ZM7.555 9.03721L7.929 11.2558C8.711 11.6074 10.037 12.3191 10.7 12.7209V11.4651L7.555 9.03721Z" fill="rgb(64, 152, 255)"></path></svg>