<svg viewBox="0 0 18 18" fill="rgb(255, 200, 93)" xmlns="http://www.w3.org/2000/svg" width="68" height="68"><path d="M7.73486 6.18966H10.2651L9.35666 5.28124C9.24879 5.17338 9.24879 4.99903 9.35666 4.89117L9.46645 4.78138C9.69955 4.54855 9.82783 4.23903 9.82783 3.90966C9.82783 3.524 9.64355 3.15517 9.33459 2.92345L9.27583 2.87931V1.5H8.7241V2.87931L8.66562 2.92317C8.35666 3.1549 8.17238 3.52372 8.17238 3.90938C8.17238 4.23876 8.30066 4.54828 8.53348 4.7811L8.64328 4.8909C8.75086 4.99876 8.75086 5.1731 8.64328 5.28097L7.73486 6.18966Z" fill="rgb(255, 200, 93)"></path><path d="M7.34485 17.4998V6.74121H10.6552V17.4998H7.34485Z" fill="rgb(255, 200, 93)"></path><path d="M6.79312 12.8105H1.4585L3.03477 11.4312H6.79312V12.8105Z" fill="rgb(255, 200, 93)"></path><path d="M14.9653 11.4312H11.2069V12.8105H16.5415L14.9653 11.4312Z" fill="rgb(255, 200, 93)"></path><path d="M2.10345 10.4418L1.82759 10.1659V9.22412H1.27586V10.1659L1 10.4418V12.4782L2.10345 11.5127V10.4418Z" fill="rgb(255, 200, 93)"></path><path d="M16.7242 10.1659V9.22412H16.1725V10.1659L15.8966 10.4418V11.5127L17.0001 12.4782V10.4418L16.7242 10.1659Z" fill="rgb(255, 200, 93)"></path><path d="M1 13.3623H6.7931V17.5002H1V13.3623Z" fill="rgb(255, 200, 93)"></path><path d="M17 13.3623H11.2069V17.5002H17V13.3623Z" fill="rgb(255, 200, 93)"></path></svg>