<svg viewBox="0 0 18 18" fill="rgb(151, 71, 255)" xmlns="http://www.w3.org/2000/svg" width="68" height="68"><path fill-rule="evenodd" clip-rule="evenodd" d="M3 16H6.82917L7.51881 2.47532L9.04229 0.5H9.09989L10.6234 2.47532L10.9224 8.30335L13.3009 4.28666C13.3238 4.24801 13.3542 4.21431 13.3903 4.18754C13.4263 4.16077 13.4674 4.14147 13.511 4.13076C14.0117 4.0078 14.5404 4.08026 14.9896 4.33338C15.4387 4.58651 15.7745 5.00127 15.9286 5.49325L15.9742 5.649C16.0762 5.96032 16.2878 6.22398 16.5697 6.3909C16.8516 6.55783 17.1846 6.61666 17.5066 6.55644L17.618 6.53332C17.8785 6.49792 18.0786 6.76795 17.9697 7.00693L17.9517 7.04064L16.4026 9.65668C16.3797 9.69534 16.3493 9.72903 16.3132 9.7558C16.2771 9.78257 16.2361 9.80188 16.1925 9.81259C15.6918 9.93554 15.1631 9.86308 14.7139 9.60996C14.2648 9.35684 13.929 8.94207 13.7749 8.45009L13.7293 8.29434C13.6305 7.99281 13.4287 7.73568 13.1594 7.56799C12.89 7.4003 12.5702 7.33275 12.256 7.37718L11.1283 9.28166C11.0932 9.34076 11.0412 9.38738 10.9795 9.41587L11.3174 16H15V19H3V16Z" fill="rgb(151, 71, 255)"></path></svg>